# File created by Blade
# Date/Time:  Thu Sep 25 19:32:06 2014
# Frame Rate: 120.000 fps
#------------------------------------------------------
:FULLY-SPECIFIED
:DEGREES
1747
root 6.023177 33.118943 -1.027403 14.997722 -0.881351 -2.329202
Spine -7.076523 5.795802 -0.481627
Head -15.607592 -3.269529 2.604631
LeftShoulder -8.237985 14.884453 24.584145
LeftArm 19.936226 -17.616898 -39.784892
LeftForeArm 9.377344 0.000000 16.387639
LeftHand -26.534505 0.000000 -0.517067
LeftHandThumb1 -26.253704 0.000000 33.147579
RightShoulder -16.740112 16.897445 -38.165564
RightArm -7.482149 8.711631 33.590057
RightForeArm -19.905596 -0.000000 18.905207
RightHand -10.613507 0.000000 -4.522074
RightHandThumb1 -24.326973 -0.000000 -32.862282
LeftUpLeg -13.739550 6.583848 -3.573838
LeftLeg 7.744749 -0.000000 -0.000000
LeftFoot -12.986988 2.844876 -14.638959
LeftToeBase 9.842864 -0.000000 -0.000000
RightUpLeg -0.455866 -10.426560 -0.969703
RightLeg 11.405164 -0.000000 -0.000000
RightFoot -12.947635 -8.180530 6.281081
RightToeBase -3.075192 -0.000000 0.000000
1748
root 6.057029 33.096953 -1.019891 15.089362 -0.972706 -2.191568
Spine -7.330730 5.945708 -0.784069
Head -15.597772 -3.457097 2.742045
LeftShoulder -8.331510 15.042158 24.522869
LeftArm 19.985871 -17.672399 -39.791090
LeftForeArm 9.360555 -0.000000 16.493595
LeftHand -26.518439 -0.000000 -0.453762
LeftHandThumb1 -26.253704 0.000000 33.147579
RightShoulder -16.767400 16.845300 -38.184846
RightArm -7.479464 8.778151 33.441153
RightForeArm -19.817957 -0.000000 18.914285
RightHand -10.602647 -0.000000 -4.742480
RightHandThumb1 -24.326973 -0.000000 -32.862282
LeftUpLeg -14.110926 6.772128 -3.851193
LeftLeg 8.350507 -0.000000 -0.000000
LeftFoot -13.280196 2.692894 -14.419968
LeftToeBase 10.032569 -0.000000 -0.000000
RightUpLeg 0.232395 -10.726759 -0.906218
RightLeg 12.013619 -0.000000 -0.000000
RightFoot -13.011581 -7.442705 6.249851
RightToeBase -3.431003 -0.000000 0.000000
1749
root 6.084520 33.075944 -1.016482 15.188061 -1.105611 -2.100350
Spine -7.574084 6.128061 -1.029646
Head -15.583864 -3.605618 2.751130
LeftShoulder -8.382746 15.135855 24.431412
LeftArm 19.899168 -17.744071 -39.749478
LeftForeArm 9.433335 -0.000000 16.603378
LeftHand -26.642790 -0.000000 -0.314722
LeftHandThumb1 -26.253704 0.000000 33.147579
RightShoulder -16.787049 16.810975 -38.239572
RightArm -7.493183 8.741091 33.317589
RightForeArm -19.509058 -0.000000 18.922463
RightHand -10.462360 -0.000000 -4.999239
RightHandThumb1 -24.326973 -0.000000 -32.862282
LeftUpLeg -14.479263 7.007464 -4.069732
LeftLeg 8.945906 -0.000000 -0.000000
LeftFoot -13.588000 2.521773 -14.300118
LeftToeBase 10.035904 -0.000000 -0.000000
RightUpLeg 0.991701 -10.569205 -0.721774
RightLeg 12.319823 -0.000000 -0.000000
RightFoot -13.040070 -7.053659 6.273587
RightToeBase -3.749570 -0.000000 0.000000
1750
root 6.110205 33.057960 -1.017469 15.327660 -1.269550 -2.029211
Spine -7.870916 6.354737 -1.293435
Head -15.557211 -3.784767 2.844317
LeftShoulder -8.447638 15.284849 24.368248
LeftArm 19.905503 -17.854640 -39.761941
LeftForeArm 9.538168 -0.000000 16.650819
LeftHand -26.819146 -0.000000 -0.232019
LeftHandThumb1 -26.253704 0.000000 33.147579
RightShoulder -16.808348 16.747744 -38.275366
RightArm -7.499136 8.828310 33.221379
RightForeArm -19.482137 -0.000000 18.960008
RightHand -10.575006 -0.000000 -5.228053
RightHandThumb1 -24.326973 -0.000000 -32.862282
LeftUpLeg -14.865703 7.145584 -4.257801
LeftLeg 9.466739 -0.000000 -0.000000
LeftFoot -13.855194 2.485315 -14.165263
LeftToeBase 10.027658 -0.000000 -0.000000
RightUpLeg 1.728663 -10.104193 -0.436362
RightLeg 12.507899 -0.000000 -0.000000
RightFoot -13.081455 -6.520218 6.448218
RightToeBase -3.323021 -0.000000 0.000000
